<?xml version="1.0" encoding="utf-8" ?><svg xmlns="http://www.w3.org/2000/svg" xmlns:xlink="http://www.w3.org/1999/xlink" width="24" height="24"><path fill="#FFFFFF" transform="matrix(1 0 0 1 4 3)" d="M2.5 -0.8Q1.1331 -0.8 0.1665 0.1665L0.1665 0.1665Q-0.8 1.1331 -0.8 2.5L-0.8 16Q-0.8097 16.3354 -0.5657 16.5657Q-0.3354 16.8097 0 16.8Q0.1268 16.8002 0.2474 16.7608Q0.3681 16.7218 0.4706 16.647L5.7601 12.8L13.5 12.8Q14.8669 12.8 15.8335 11.8335Q16.8 10.8669 16.8 9.5L16.8 2.5Q16.8 1.1331 15.8335 0.1665Q14.8669 -0.8 13.5 -0.8L2.5 -0.8ZM0.8 2.5Q0.8 1.7958 1.2979 1.2979Q1.7958 0.8 2.5 0.8L13.5 0.8Q14.2042 0.8 14.7021 1.2979Q15.2 1.7958 15.2 2.5L15.2 9.5Q15.2 10.2042 14.7021 10.7021Q14.2042 11.2 13.5 11.2L5.5 11.2Q5.3732 11.1998 5.2526 11.2392Q5.1319 11.2782 5.0294 11.353L0.8 14.429L0.8 2.5Z" fill-rule="evenodd"/><path fill="#FFFFFF" transform="matrix(1 0 0 1 8 9)" d="M8 -0.8L0 -0.8Q-0.3354 -0.8097 -0.5657 -0.5657Q-0.8097 -0.3354 -0.8 0Q-0.8097 0.3354 -0.5657 0.5657Q-0.3354 0.8097 0 0.8L8 0.8Q8.3354 0.8097 8.5657 0.5657Q8.8097 0.3354 8.8 0Q8.8097 -0.3354 8.5657 -0.5657Q8.3354 -0.8097 8 -0.8ZM5 2.7L0 2.7Q-0.3354 2.6903 -0.5657 2.9343Q-0.8097 3.1646 -0.8 3.5Q-0.8097 3.8354 -0.5657 4.0657Q-0.3354 4.3097 0 4.3L5 4.3Q5.3354 4.3097 5.5657 4.0657Q5.8097 3.8354 5.8 3.5Q5.8097 3.1646 5.5657 2.9343Q5.3354 2.6903 5 2.7Z" fill-rule="evenodd"/></svg>